<?xml version="1.0" standalone="no"?>
<!DOCTYPE svg PUBLIC "-//W3C//DTD SVG 20010904//EN"
 "http://www.w3.org/TR/2001/REC-SVG-20010904/DTD/svg10.dtd">
<svg version="1.0" xmlns="http://www.w3.org/2000/svg"
 width="640.000000pt" height="640.000000pt" viewBox="0 0 640.000000 640.000000"
 preserveAspectRatio="xMidYMid meet">
<metadata>
Created by potrace 1.14, written by Peter Selinger 2001-2017
</metadata>
<g transform="translate(0.000000,640.000000) scale(0.100000,-0.100000)"
fill="#000000" stroke="none">
<path d="M4088 4790 c-80 -14 -161 -41 -223 -73 -82 -43 -209 -172 -258 -261
-70 -129 -131 -320 -171 -535 -9 -47 -18 -87 -21 -89 -2 -2 -30 16 -62 41
-594 467 -1454 328 -1865 -303 -124 -188 -191 -398 -204 -630 -40 -728 541
-1341 1271 -1340 198 1 364 37 542 121 134 62 221 121 340 231 54 50 123 109
153 131 30 23 77 57 103 76 93 69 187 216 246 384 50 142 61 191 147 657 107
580 261 817 589 912 70 20 103 23 257 23 98 0 178 1 178 3 0 1 -147 149 -327
330 l-327 327 -160 2 c-89 1 -182 -2 -208 -7z m345 -88 c20 -20 37 -40 37 -44
0 -4 -37 -8 -83 -8 l-83 0 -43 44 -44 45 44 3 c94 7 132 -2 172 -40z m-294
-26 l43 -44 -67 -22 -67 -22 -40 40 c-22 22 -37 45 -34 51 6 10 86 39 111 40
6 1 30 -19 54 -43z m-219 -101 l44 -44 -28 -22 c-16 -12 -37 -31 -47 -43 l-19
-20 -45 44 -45 44 42 43 c23 24 45 43 48 43 3 0 26 -20 50 -45z m-147 -169
c15 -16 27 -34 27 -39 0 -6 -43 -87 -56 -106 -6 -7 -84 73 -84 87 0 8 12 36
27 63 29 54 31 54 86 -5z m1098 -142 c21 -21 39 -41 39 -44 0 -3 -38 -5 -85
-5 l-84 0 -41 40 c-35 34 -38 41 -23 47 10 4 49 6 86 4 64 -3 71 -6 108 -42z
m-293 -27 l41 -42 -66 -23 -66 -24 -45 45 -44 45 53 20 c30 12 61 21 69 21 9
1 35 -18 58 -42z m-899 -138 c-12 -35 -23 -65 -24 -67 -1 -1 -21 17 -45 40
-42 42 -43 44 -32 83 6 22 16 53 22 69 l11 30 45 -46 46 -45 -23 -64z m678 39
l43 -42 -47 -43 -47 -44 -46 46 -45 46 44 40 c24 21 46 39 49 39 4 0 26 -19
49 -42z m-145 -170 c15 -14 28 -29 28 -33 0 -4 -14 -32 -31 -61 l-30 -54 -46
45 -46 44 33 55 c37 60 32 60 92 4z m-627 -8 l41 -41 -14 -69 c-9 -39 -18 -70
-22 -70 -3 0 -23 18 -45 40 l-38 39 12 71 c7 38 16 70 19 70 3 0 25 -18 47
-40z m-503 -177 c177 -79 226 -310 97 -457 -73 -84 -204 -117 -310 -77 -122
46 -189 143 -189 273 1 63 5 81 33 132 38 70 86 112 159 138 64 23 145 19 210
-9z m1035 -127 l-21 -66 -45 44 -44 44 13 49 c25 92 27 93 76 41 l43 -46 -22
-66z m-1942 -20 c106 -49 165 -142 165 -261 -1 -207 -196 -339 -394 -265 -57
22 -118 78 -153 141 -27 51 -25 200 4 254 29 54 88 109 143 134 65 30 169 28
235 -3z m1849 -115 l38 -39 -13 -71 c-6 -39 -15 -71 -19 -71 -3 0 -24 19 -46
43 l-41 42 15 68 c8 37 18 67 21 67 4 0 24 -18 45 -39z m-25 -371 c-6 -36 -14
-68 -18 -72 -4 -5 -26 11 -48 35 l-42 42 10 50 c22 110 15 104 65 54 l44 -44
-11 -65z m-55 -271 c-9 -38 -19 -69 -23 -69 -4 0 -24 18 -46 40 l-38 39 12 58
c21 97 17 95 66 45 l45 -44 -16 -69z m-477 96 c77 -23 136 -74 174 -150 29
-59 31 -71 27 -138 -10 -151 -113 -261 -258 -274 -188 -17 -344 152 -310 336
19 105 90 187 192 222 65 22 109 24 175 4z m-859 -45 c50 -46 16 -130 -52
-130 -39 0 -76 37 -76 75 0 12 9 34 21 49 26 33 75 35 107 6z m-567 -206 c128
-64 190 -222 142 -358 -25 -71 -103 -148 -171 -170 -253 -84 -478 176 -353
408 22 42 108 125 129 126 4 1 30 7 57 14 63 17 137 10 196 -20z m1836 -98
l-21 -66 -23 22 c-26 25 -27 29 -12 117 l12 65 33 -36 33 -36 -22 -66z m-78
-150 c10 -11 9 -22 -5 -48 -50 -98 -75 -98 -41 0 23 66 28 70 46 48z m-940
-170 c145 -74 202 -254 125 -396 -31 -57 -65 -89 -128 -123 -59 -31 -183 -31
-247 0 -175 87 -218 309 -89 457 82 93 225 119 339 62z"/>
</g>
</svg>
